<svg xmlns:svg="http://www.w3.org/2000/svg" xmlns="http://www.w3.org/2000/svg" xmlns:xlink="http://www.w3.org/1999/xlink" id="svg410849" viewBox="0 0 1024 768" height="768px" width="1024px" version="1.1">
  
  <defs id="defs410853"></defs>
  <linearGradient spreadMethod="pad" y2="30%" x2="-10%" y1="120%" x1="30%" id="3d_gradient2-logo-d00406f3-053e-4005-a519-67ff988b3e09">
    <stop id="stop410830" stop-opacity="1" stop-color="#ffffff" offset="0%"></stop>
    <stop id="stop410832" stop-opacity="1" stop-color="#000000" offset="100%"></stop>
  </linearGradient>
  <linearGradient gradientTransform="rotate(-30)" spreadMethod="pad" y2="30%" x2="-10%" y1="120%" x1="30%" id="3d_gradient3-logo-d00406f3-053e-4005-a519-67ff988b3e09">
    <stop id="stop410835" stop-opacity="1" stop-color="#ffffff" offset="0%"></stop>
    <stop id="stop410837" stop-opacity="1" stop-color="#cccccc" offset="50%"></stop>
    <stop id="stop410839" stop-opacity="1" stop-color="#000000" offset="100%"></stop>
  </linearGradient>
  <g id="logo-group">
    <image xlink:href="" id="container" x="272" y="144" width="480" height="480" style="display: none;" transform="translate(0 0)"></image>
    <g id="logo-center" transform="translate(191.43504545454533 0)">
      <image xlink:href="" id="icon_container" x="0" y="0" style="display: none;"></image>
      <g id="slogan" style="font-style:normal;font-weight:700;font-size:32px;line-height:1;font-family:'Brandmark1 Bold';font-variant-ligatures:none;text-align:center;text-anchor:middle" transform="translate(0 0)"></g>
      <g id="title" style="font-style:normal;font-weight:700;font-size:72px;line-height:1;font-family:'Brandmark1 Bold';font-variant-ligatures:normal;text-align:center;text-anchor:middle" transform="translate(0 0)">
        <path id="path410858" style="font-style:normal;font-weight:700;font-size:72px;line-height:1;font-family:'Brandmark1 Bold';font-variant-ligatures:normal;text-align:center;text-anchor:middle" d="m 329.05081,2.952 c 9.576,0 18.432,-4.68 23.76,-12.6 l -9.36,-6.336 c -3.24,4.824 -8.64,7.632 -14.4,7.632 -4.608,0 -8.928,-1.8 -12.24,-5.04 -3.24,-3.24 -5.04,-7.632 -5.04,-12.24 0,-4.608 1.8,-9 5.04,-12.24 3.312,-3.312 7.632,-5.112 12.24,-5.112 5.832,0 11.232,2.88 14.4,7.704 l 9.432,-6.264 c -5.328,-7.992 -14.256,-12.744 -23.832,-12.744 -3.816,0 -7.56,0.792 -11.088,2.304 -3.456,1.44 -6.48,3.456 -9.144,6.12 -2.592,2.592 -4.68,5.688 -6.12,9.072 -1.512,3.528 -2.232,7.272 -2.232,11.16 0,3.888 0.72,7.632 2.232,11.16 1.44,3.384 3.528,6.408 6.12,9.072 2.664,2.592 5.688,4.68 9.144,6.12 3.528,1.512 7.272,2.232 11.088,2.232 z" stroke-width="0" stroke-linejoin="miter" stroke-miterlimit="2" fill="#532031" stroke="#532031" transform="translate(0 311.72581818181817) translate(50 36.99418181818182) scale(1.2727272727272727) translate(-300.46681 54.288)"></path>
        <path id="path410860" style="font-style:normal;font-weight:700;font-size:72px;line-height:1;font-family:'Brandmark1 Bold';font-variant-ligatures:normal;text-align:center;text-anchor:middle" d="M 354.00669,-15.192 V 2.52 h 10.8 v -17.712 c 0,-6.984 5.688,-12.6 12.6,-12.6 v -10.8 c -3.168,0 -6.192,0.576 -9.072,1.8 -2.808,1.224 -5.328,2.88 -7.416,5.04 -2.16,2.16 -3.888,4.68 -5.04,7.416 -1.224,2.88 -1.872,5.976 -1.872,9.144 z" stroke-width="0" stroke-linejoin="miter" stroke-miterlimit="2" fill="#532031" stroke="#532031" transform="translate(0 311.72581818181817) translate(118.14166545454543 56.970909090909096) scale(1.2727272727272727) translate(-354.00669 38.592)"></path>
        <path id="path410862" style="font-style:normal;font-weight:700;font-size:72px;line-height:1;font-family:'Brandmark1 Bold';font-variant-ligatures:normal;text-align:center;text-anchor:middle" d="M 379.89181,-35.424 V 2.52 h 10.872 v -41.544 z" stroke-width="0" stroke-linejoin="miter" stroke-miterlimit="2" fill="#532031" stroke="#532031" transform="translate(0 311.72581818181817) translate(151.08636363636367 56.42109090909091) scale(1.2727272727272727) translate(-379.89181 39.024)"></path>
        <path id="path410864" style="font-style:normal;font-weight:700;font-size:72px;line-height:1;font-family:'Brandmark1 Bold';font-variant-ligatures:normal;text-align:center;text-anchor:middle" d="m 450.53394,-32.328 c -3.312,-3.312 -7.632,-5.112 -12.24,-5.112 -4.536,0 -8.712,1.728 -11.952,4.752 -3.24,-3.024 -7.416,-4.752 -11.88,-4.752 -2.304,0 -4.536,0.432 -6.552,1.296 v -1.872 h -10.8 V 2.52 h 10.8 v -22.608 c 0,-3.6 2.952,-6.552 6.552,-6.552 3.528,0 6.48,2.952 6.48,6.552 V 2.52 h 10.8 v -22.608 c 0,-3.6 2.952,-6.552 6.552,-6.552 3.528,0 6.48,2.952 6.48,6.552 V 2.52 h 10.8 v -22.608 c 0,-4.608 -1.8,-9 -5.04,-12.24 z" stroke-width="0" stroke-linejoin="miter" stroke-miterlimit="2" fill="#532031" stroke="#532031" transform="translate(0 311.72581818181817) translate(173.00034727272725 57.704) scale(1.2727272727272727) translate(-397.10994 38.016)"></path>
        <path id="path410866" style="font-style:normal;font-weight:700;font-size:72px;line-height:1;font-family:'Brandmark1 Bold';font-variant-ligatures:normal;text-align:center;text-anchor:middle" d="m 458.86906,2.952 h 16.848 c 7.272,0 13.176,-5.904 13.176,-13.176 0,-7.272 -5.904,-13.248 -13.176,-13.248 h -3.024 c -1.008,0 -1.872,-0.792 -1.872,-1.872 0,-1.008 0.864,-1.872 1.872,-1.872 h 15.048 V -38.52 h -15.048 c -7.272,0 -13.176,5.904 -13.176,13.176 0,7.272 5.904,13.176 13.176,13.176 h 3.024 c 1.008,0 1.872,0.864 1.872,1.944 0,1.008 -0.792,1.872 -1.872,1.872 h -16.848 z" stroke-width="0" stroke-linejoin="miter" stroke-miterlimit="2" fill="#532031" stroke="#532031" transform="translate(0 311.72581818181817) translate(251.60286363636362 57.06254545454545) scale(1.2727272727272727) translate(-458.86906 38.52)"></path>
        <path id="path410868" style="font-style:normal;font-weight:700;font-size:72px;line-height:1;font-family:'Brandmark1 Bold';font-variant-ligatures:normal;text-align:center;text-anchor:middle" d="m 510.67306,2.952 c 2.736,0 5.4,-0.504 7.992,-1.584 2.448,-1.008 4.608,-2.52 6.48,-4.392 1.872,-1.872 3.384,-4.104 4.392,-6.552 1.08,-2.52 1.656,-5.184 1.656,-7.992 0,-2.736 -0.576,-5.4 -1.656,-7.992 -1.008,-2.448 -2.52,-4.608 -4.392,-6.48 -1.872,-1.872 -4.104,-3.384 -6.48,-4.392 -2.592,-1.08 -5.256,-1.656 -7.992,-1.656 -2.808,0 -5.472,0.576 -7.992,1.656 -2.448,1.008 -4.68,2.52 -6.552,4.392 -1.872,1.872 -3.384,4.104 -4.392,6.48 -1.08,2.592 -1.584,5.256 -1.584,7.992 0,2.808 0.504,5.472 1.584,7.992 1.008,2.448 2.52,4.68 4.392,6.552 1.872,1.872 4.104,3.384 6.552,4.392 2.52,1.08 5.184,1.584 7.992,1.584 z m 0,-30.24 c 5.328,0 9.72,4.392 9.72,9.72 0,5.4 -4.392,9.72 -9.72,9.72 -5.4,0 -9.72,-4.32 -9.72,-9.72 0,-5.328 4.32,-9.72 9.72,-9.72 z" stroke-width="0" stroke-linejoin="miter" stroke-miterlimit="2" fill="#532031" stroke="#532031" transform="translate(0 311.72581818181817) translate(291.4188636363636 57.61236363636364) scale(1.2727272727272727) translate(-490.15306 38.088)"></path>
        <path id="path410870" style="font-style:normal;font-weight:700;font-size:72px;line-height:1;font-family:'Brandmark1 Bold';font-variant-ligatures:normal;text-align:center;text-anchor:middle" d="m 565.95106,-31.608 c -3.384,-3.456 -7.992,-5.328 -12.816,-5.328 -2.52,0 -5.04,0.504 -7.272,1.512 v -2.592 h -10.8 v 17.64 c -0.072,0.504 -0.072,1.08 -0.072,1.584 h 0.072 V 2.52 h 10.8 V -19.8 c 0.504,-3.6 3.6,-6.336 7.272,-6.336 4.032,0 7.344,3.312 7.344,7.344 V 2.52 h 10.8 v -21.312 c 0,-4.824 -1.872,-9.36 -5.328,-12.816 z" stroke-width="0" stroke-linejoin="miter" stroke-miterlimit="2" fill="#532031" stroke="#532031" transform="translate(0 311.72581818181817) translate(348.48540909090906 57.704) scale(1.2727272727272727) translate(-534.99106 38.016)"></path>
        <path id="path410872" style="font-style:normal;font-weight:700;font-size:72px;line-height:1;font-family:'Brandmark1 Bold';font-variant-ligatures:normal;text-align:center;text-anchor:middle" d="M 582.09931,-42.912 V 2.52 h 11.304 v -45.432 h 15.48 V -53.64 h -42.048 v 10.728 z" stroke-width="0" stroke-linejoin="miter" stroke-miterlimit="2" fill="#f79c7f" stroke="#f79c7f" transform="translate(0 311.72581818181817) translate(389.01445454545467 37.818909090909095) scale(1.2727272727272727) translate(-566.83531 53.64)"></path>
        <path id="path410874" style="font-style:normal;font-weight:700;font-size:72px;line-height:1;font-family:'Brandmark1 Bold';font-variant-ligatures:normal;text-align:center;text-anchor:middle" d="m 620.75206,2.952 c 4.752,0 9.288,-1.872 12.672,-5.256 3.456,-3.384 5.328,-7.92 5.328,-12.744 v -22.536 h -10.8 v 22.536 c 0,4.032 -3.24,7.2 -7.2,7.2 -4.032,0 -7.2,-3.168 -7.2,-7.2 v -22.536 h -10.8 v 22.536 c 0,4.824 1.872,9.36 5.256,12.744 3.384,3.384 7.92,5.256 12.744,5.256 z" stroke-width="0" stroke-linejoin="miter" stroke-miterlimit="2" fill="#f79c7f" stroke="#f79c7f" transform="translate(0 311.72581818181817) translate(434.72668181818193 58.25381818181818) scale(1.2727272727272727) translate(-602.75206 37.584)"></path>
        <path id="path410876" style="font-style:normal;font-weight:700;font-size:72px;line-height:1;font-family:'Brandmark1 Bold';font-variant-ligatures:normal;text-align:center;text-anchor:middle" d="m 684.94006,-17.568 c 0,-2.736 -0.504,-5.472 -1.584,-7.992 -1.08,-2.448 -2.52,-4.608 -4.392,-6.48 -1.872,-1.944 -4.104,-3.384 -6.552,-4.392 -2.52,-1.08 -5.184,-1.656 -7.992,-1.656 -2.736,0 -5.472,0.576 -7.992,1.656 -0.576,0.216 -1.152,0.504 -1.728,0.792 v -20.448 l -10.8,3.6 v 34.92 c 0,2.808 0.576,5.472 1.584,7.992 1.08,2.448 2.52,4.68 4.392,6.552 1.944,1.872 4.104,3.384 6.552,4.392 2.52,1.08 5.256,1.584 7.992,1.584 2.736,0 5.472,-0.504 7.992,-1.584 2.448,-1.08 4.608,-2.52 6.552,-4.392 1.872,-1.872 3.312,-4.104 4.392,-6.552 1.08,-2.52 1.584,-5.184 1.584,-7.992 z m -10.8,0 c 0,5.4 -4.392,9.72 -9.72,9.72 -5.328,0 -9.72,-4.32 -9.72,-9.72 0,-5.328 4.392,-9.72 9.72,-9.72 5.328,0 9.72,4.392 9.72,9.72 z" stroke-width="0" stroke-linejoin="miter" stroke-miterlimit="2" fill="#f79c7f" stroke="#f79c7f" transform="translate(0 311.72581818181817) translate(487.09686363636376 34.703272727272726) scale(1.2727272727272727) translate(-643.90006 56.088)"></path>
        <path id="path410878" style="font-style:normal;font-weight:700;font-size:72px;line-height:1;font-family:'Brandmark1 Bold';font-variant-ligatures:normal;text-align:center;text-anchor:middle" d="m 705.33631,2.736 c 2.88,0 5.616,-0.576 8.208,-1.656 2.448,-1.152 4.68,-2.664 6.552,-4.68 l -7.56,-7.2 c -1.872,2.016 -4.464,3.096 -7.2,3.096 -3.528,0 -6.552,-1.8 -8.352,-4.608 h 28.656 v -5.184 c 0,-5.472 -2.088,-10.512 -5.976,-14.4 -3.816,-3.816 -8.928,-5.904 -14.328,-5.904 -5.4,0 -10.512,2.088 -14.328,5.904 -3.816,3.888 -5.976,8.928 -5.976,14.4 0,5.4 2.16,10.512 5.976,14.328 3.816,3.816 8.928,5.904 14.328,5.904 z m 8.352,-25.488 h -16.704 c 1.8,-2.736 4.824,-4.608 8.352,-4.608 3.528,0 6.624,1.872 8.352,4.608 z" stroke-width="0" stroke-linejoin="miter" stroke-miterlimit="2" fill="#f79c7f" stroke="#f79c7f" transform="translate(0 311.72581818181817) translate(539.4470000000002 57.9789090909091) scale(1.2727272727272727) translate(-685.03231 37.8)"></path>
      </g>
      <image xlink:href="" id="icon" x="0" y="0" style="display: none;"></image>
    </g>
  </g>
</svg>